<!-- Generator: Adobe Illustrator 25.0.0, SVG Export Plug-In  -->
<svg version="1.1" xmlns="http://www.w3.org/2000/svg" xmlns:xlink="http://www.w3.org/1999/xlink" x="0px" y="0px"
	 width="2560.55px" height="1440px" viewBox="0 0 2560.55 1440" style="overflow:visible;enable-background:new 0 0 2560.55 1440;"
	 xml:space="preserve">
<style type="text/css">
	.st0{fill:#4FB8DE;}
	.st1{fill:#D6EAF2;}
	.st2{fill:#045601;}
	.st3{fill:#35630B;}
	.st4{fill:#4E801A;}
	.st5{fill:#3F7011;}
	.st6{fill:#80B629;}
	.st7{fill:#64A61E;}
	.st8{fill:#4D7E1B;}
	.st9{fill:#95CF3B;}
	.st10{fill:#84DFF4;}
</style>
<defs>
</defs>
<g>
	<path class="st0" d="M0.55,816.42h2560V379.77l-44.42-43.35c0,0-13.94-30.97-48,0l-148.01,145.55l-30.16-38.71
		c0,0-21.57-21.68-33.95-3.1l-30.05-30.97c0,0-17.95-37.16-45.82,0l-114.58,103.74c0,0-24.97-69.68-86.04-3.1L1774.45,684.8
		l-733.55-35.61L811.35,472.68c0,0-34.06-43.35-49.55-6.19c0,0-17.41,10.84-34.25-3.1l-44.71-52.65c0,0-17.03-46.45-54.19,1.55
		l-77.42,72.77L419.61,372.03l-27.67,13.94l-40.46,26.32l-56.59-48l-40.56,9.29l-77.23-74.32c0,0-15.18-24.77-24.14,0
		C144,324.03,38.71,429.32,38.71,429.32L0.55,452.55L0,664.68L0.55,816.42z"/>
	<path class="st1" d="M152.52,295.38c0,0-98.32,109.16-106.84,109.94c-8.52,0.77-16.26-10.06-16.26-10.06s-16.03-7.74-22.45,5.42
		s-6.42,17.81-6.42,17.81v62.71l17.26-30.97c0,0,27.1,3.1,30.19,0.77c0,0-2.32-10.06-3.87-12.39c-1.55-2.32,20.13-0.77,20.13-0.77
		l0.77-24.77c0,0,73.55-11.61,82.84-24.77c0,0-40.26-9.29-34.84-12.39c0,0,27.87-24,32.52-41.81S152.52,295.38,152.52,295.38z"/>
	<path class="st1" d="M255.48,375.13c0,0,8.52-0.77,7.74,6.19c0,0,0.87,10.06,0.05,13.16c0,0,21.63,1.52,27.82-9.69
		c0,0,5.42-17.41,4.65-20.5L255.48,375.13z"/>
	<path class="st1" d="M350.71,411.51l61.16,50.32c0,0-9.29-48-16.26-50.32c0,0,14.71,6.19,16.26,3.87c0,0,5.42-17.67,0-20.83
		l7.74-22.52C419.61,372.03,393.29,382.09,350.71,411.51z"/>
	<path class="st1" d="M550.45,485.06l83.61,70.45c0,0,44.13-4.65,44.9-11.61l-45.68-19.35c0,0,64.26-26.32,63.48-31.74l-68.9-3.1
		c0,0,17.03-5.42,12.39-13.16l-21.68-10.06c0,0,37.94-19.35,37.16-22.45c0,0-6.97-17.03-8.52-19.35c0,0,21.59-32.38,23.95-30.12
		c2.37,2.25-13.89-17.1-40.99,15.41L550.45,485.06z"/>
	<path class="st1" d="M737.81,469.58l-4.65,11.61h18.58c0,0-3.1,12.39-9.29,11.61c0,0,36.39,4.65,40.26-11.61
		c0,0,3.87-20.9,12.39-24c0,0-17.03-17.03-34.84,9.29C760.26,466.48,758.71,471.13,737.81,469.58z"/>
	<path class="st1" d="M2509.94,329.45H2496v48l-43.35,24.77c0,0-10.84,3.1,0,10.06l26.24,9.29c0,0,22.54,9.29-6.11,15.48
		c0,0-43.35,6.19-49.55,4.65c0,0,21.68,13.16,14.71,20.9c0,0-19.35,13.16-23.23,7.74c0,0,29.42,2.32,21.68,9.29
		c0,0-160.26,61.16-170.32,58.84l54.19-58.06l148.65-144C2468.9,336.42,2496,310.09,2509.94,329.45z"/>
	<path class="st1" d="M1863.48,609.71l101.42,10.06l26.32-26.54l-39.74-3.66c0,0-10.58-7.74,4.9-12.39c0,0,30.19-3.1,28.65-7.74
		c-1.55-4.65-26.32-7.74-26.32-7.74l63.48-27.87c0,0,32.52-16.26,0-23.23c0,0-5.42-6.19,1.55-10.06c0,0,24-11.61,7.74-17.81
		s-37.16,11.61-51.1,24L1863.48,609.71z"/>
</g>
<path class="st2" d="M2164.29,646.59c0,0-8.87-25.8-37.61-11.06c0,0-15.84-15.61-36.11,3.25c0,0-20.27-14.85-23.96-0.76
	c0,0-27-18.31-28.24-8.56c0,0,5.82-16.24-17.06-9.69c0,0-27.67-52.04-61.21-1.55c0,0-13.11-30.6-29.78-10.33
	c0,0-16.67-11.06-20.35,0c0,0,0-18.43-22.11-3.69c0,0-8.2-12.72-24.37-10.97c0,0,15.16-31.42-14.33-22.21c0,0-5.53-18.13-20.27-1.69
	c0,0-22.11-33.14-38.7,23.9c0,0-14.74-16.89-20.27,9.94c0,0-14.74-21.3-18.43,0c0,0-21.27-21.03-37.02,6.16
	c0,0-17.89-5.73-17.89,22.19h-12.88c0,0-7.16-13.6-17.18-4.29c0,0-23.62-35.07-47.23,3.58c0,0,187.5,110.93,190.37,110.93
	c2.86,0,227.48-8.59,227.48-8.59l115.32-51.53L2164.29,646.59z"/>
<path class="st3" d="M950.82,667.85c0,0-147.04,61.01-148.61,63.35c-1.56,2.35-189.28-106.37-189.28-106.37s10.17-15.64,25.03-7.04
	c0,0,4.69-20.34,18.77-7.82c0,0,14.08-5.47,16.42,1.56c0,0,4.69-27.38,20.34-10.17c0,0,13.3-1.56,12.51,6.26
	c0,0,17.21-10.95,17.99,14.86c0,0,16.42-0.78,16.42,3.91c0,0,4.69-12.51,17.21-10.17c0,0,5.47-8.6,10.95-5.47
	c0,0,13.3-46.93,35.2,1.56c0,0,13.3-1.56,16.42,9.39c0,0,15.64,0.78,16.42,15.64c0,0,22.68-17.21,25.81,4.69
	c0,0,28.16-38.32,38.32,6.26c0,0,14.86-11.73,15.64,3.91C916.4,652.21,953.94,635.78,950.82,667.85z"/>
<path class="st2" d="M0.55,525.5v106.37l179.08-49.27c0,0-7.82-7.82-14.86-3.91c0,0-11.73-15.64-28.16-3.13c0,0-8.6-7.82-14.08-2.35
	c0,0-30.2-38.32-46-10.95c0,0-10.32-7.82-18.92,1.56c0,0-8.6-13.61-21.12-11.5c0,0,5.47-13.53-1.56-19.01c0,0,3.13-35.98-23.46-7.82
	C11.46,525.5,3.71,518.46,0.55,525.5z"/>
<path class="st4" d="M808.37,700.84c0,0,359.31-99.28,559.45-100.86s485.38,100.86,485.38,100.86s-420.74,24.87-425.48,24.25
	c-4.75-0.61-271.08,21.29-275.8,16.64c-4.73-4.65-171.78-34.59-171.78-34.59L808.37,700.84z"/>
<path class="st5" d="M1341.2,679.93c0,0-80.46,57.92,19.9,32.27c0,0,228.3-81.82,345.16-56.83l55.09,15.79l-8.97,76.85l-88.42,36.7
	l-95.94,9.73l-464.56-3.78l-179.73-59.42l-45.99-48.48c0,0,160.43-38.51,224.04-49.96c0,0-127.93,55.91-0.91,67.14
	C1100.86,699.93,1302.45,679.81,1341.2,679.93z"/>
<path class="st3" d="M1707.44,741.73c0,0-216.89,57.57-369.83,43.75c0,0-258.36-17.08-381.06-60.38c0,0-73.83-24.95-78.82-42.34
	c0,0-38.68,9.49-69.36,18.08l85.97,86.78l173.68,29.83l629.92-0.86L1707.44,741.73z"/>
<path class="st6" d="M0.55,632.8c0,0,282.88-147.15,669.99,6.65s397.48,178,397.48,178L0.55,816.42V632.8z"/>
<path class="st7" d="M419.61,623.03c0,0-76.38,25.92,0,25.92s412.71,56.22,412.71,56.22s195.09,81.17,235.7,112.28H685.23
	l-295.52-35.43L0.55,720.24v-70.42c0,0,58.22-24.19,66.86-23.33c0,0,2.46,35.43,201.26,13.83S419.61,623.03,419.61,623.03z"/>
<path class="st8" d="M507.23,731.24c0,0-25.06,33.5-63.08,32.63s-13.83,18.15,0,16.42c13.83-1.73,413.65,36.12,413.65,36.12H0.55
	V682.76C0.55,682.76,140.86,748.73,507.23,731.24z"/>
<path class="st8" d="M2560.55,552.33c0,0-229.03-18.25-533.56,152.25l-13.8,13.3c0,0,23.26,73.92,23.95,76.87
	c0.69,2.96,203.22,14.52,203.22,14.52l25.23,7.14l32.92-0.47l12.81-66.52l-67.51-30.06c0,0-0.99-26.61,0.99-29.57
	c1.97-2.96,128.61-13.8,128.61-13.8l187.14-43.36V552.33z"/>
<path class="st5" d="M2262.04,659.74c-0.49-1.48-88.21-10.35-53.71,49.77c0,0,35.65,36.96,57.74,40.41
	c22.09,3.45,214.27-17.74,214.27-17.74l80.21-60.61l-0.38-72.44c0,0-122.21,52.73-143.4,55.68
	C2395.58,657.77,2262.04,659.74,2262.04,659.74z"/>
<path class="st3" d="M2208.33,709.51c0,0,311.48-22.41,352.11-58.76l0.11,165.67l-319.7,0.52c0,0,5.91-33.51,40.41-37.94
	c34.49-4.43-19.22-24.86-19.22-24.86S2210.79,726.26,2208.33,709.51z"/>
<path class="st9" d="M2560.17,568.57c0,0-232.68,6.29-400.18,70.65c0,0,213.19-95.25,400.56-86.9L2560.17,568.57z"/>
<path class="st9" d="M0.55,649.82c0,0,148.62-62.54,314.45-66.16c165.83-3.62,458.27,103.16,508.24,117.73
	c0,0-270.81-130.6-454.77-130.51c0,0-190.31-17.62-367.92,61.92V649.82z"/>
<path class="st5" d="M393.53,813.95c0,0-1.58-6.51-17.38-6.51c0,0,4.37-11.71-16.45-15.62c0,0-1.3-18.22-22.12-16.92
	c0,0-9.76-14.31-31.23-4.55c0,0-7.81-13.66-25.37-9.11c0,0-5.86-17.57-18.22-13.01c0,0,7.16-25.37-22.12-13.66
	c0,0-7.16-9.43-14.31-3.09c0,0,10.41-24.89-14.31-23.59c0,0-1.3-19.52-25.37-7.16c0,0-33.18-11.06-39.69,29.28
	c0,0-14.31,1.1-21.47,25.28c0,0-1.95-4.65-9.76,0c0,0-4.55-44.14-25.37-41.54c0,0-12.52,3.9-11.46,24.07c0,0-6.75-9.76-11.96-1.95
	c0,0,8.46-33.18-14.96-25.37c0,0-3.9-13.66-14.96-9.76c0,0,9.66-53.35-36.16-31.23v144.44H393.53z"/>
<path class="st3" d="M152.8,795.73c0,0,26.95-59.21,44.38,0c0,0,19.38-5.21,30.44,6.51c0,0,12.36-7.16,13.01,0
	c0,0,16.27-14.96,24.72,0c0,0,13.66,3.9,9.11,11.71H0.82V700.74c0,0,23.8,1.79,20.55,38.3c0,0,12.36,3.99,12.36,23.51
	c0,0,22.77-0.65,27.98,22.12c0,0,33.83-24.07,37.09,7.81c0,0,15.62-11.71,28.63,1.95C127.42,794.43,150.84,787.27,152.8,795.73z"/>
<path class="st2" d="M2201.4,656.49h24.83c0,0,11.19-3.9,13.15-7.16c1.95-3.25-6.51-5.21-6.51-5.21l3.25-5.86l-5.21-3.9l5.21-5.21
	l-7.16-4.55l3.9-9.11l-6.64-2.6l3.39-16.92h-3.39l-5.69-13.66h-4.58l-3.9-8.46l-4.6,9.11l-6.05-1.3v11.56h-4.97v21.94h-8.46
	c0,0-1.3,11.39,0,15.29l-5.86-2.6C2182.11,627.87,2180.34,656.49,2201.4,656.49z"/>
<path class="st6" d="M2143.08,636.98v14.31l4.55-4.55l3.25,16.92l5.21-7.16v23.09l5.86-2.89v18.78h7.16c0,0-19.52,18.92-26.03,14.37
	c0,0-15.32-1.95-16.12-10.41c0,0-7.95-7.16-3.07-16.27l3.07-26.68l4.41,2.6l1.95-8.46l1.95,5.86l1.3-19.52H2143.08z"/>
<path class="st9" d="M302.44,664.14c0,0-21.47-8.94-16.92-20.65l5.21-8.46l2.94,6.51l4.87-20.03h3.9V606.4h3.25l4.55-13.16
	l7.16,16.41l2.6-3.9v18.87l9.11-3.11v23.93l5.86-7.16c0,0,6.51,25.86-13.01,25.86C302.44,664.14,302.44,664.14,302.44,664.14z"/>
<path class="st3" d="M225.02,612.25c0,0-22.12-2.6-20.17-22.77h5.21v-16.92h7.16l-2.34-20.17h7.54l2.6-13.85l5.21,4.09v-14.31
	l7.16,10.23h4.55l4.55,11.25l2.6-5.86v26.35l9.11-5.53v28.48l5.21-4.41c0,0,5.11,24.07-18.22,23.42H225.02z"/>
<path class="st10" d="M0,0"/>
<path class="st10" d="M2560,1440"/>
<path class="st10" d="M2560,0"/>
<path class="st10" d="M0,1440"/>
</svg>
