
<svg version="1.1" xmlns="http://www.w3.org/2000/svg" xmlns:xlink="http://www.w3.org/1999/xlink" x="0px" y="0px"
	 width="2562.59px" height="1442.89px" viewBox="0 0 2562.59 1442.89"
	 style="overflow:visible;enable-background:new 0 0 2562.59 1442.89;" xml:space="preserve">
<style type="text/css">
	.st0{fill:#84DFF4;}
	.st1{fill:#FFFFFF;}
</style>
<defs>
</defs>
<polygon class="st0" points="0,5.77 2560,0 2562.59,1150.14 3.04,1111.93 "/>
<path class="st1" d="M2295.71,268.25c0,0-98.01,7.76-107.71,0c0,0-25.29,7.76-37.87,0c0,0-0.94,11.75-35.87,3.45
	c0,0-20.07,8.42-22.65,2.97c0,0-10.34,19.3-34.6-2.29c0,0-22.32,15.28-43.67-4.13c0,0-37.84,43.47-65.98,7.18
	c0,0-30.69,10.29-40.09-11.06c0,0-26.98,7.76-33.71-2.91c0,0-20.32,10.67-23.23,0c0,0-27.17,34.93-70.84,8.73
	c0,0-5.82,11.64-23.29,0.97c0,0-11.64,9.7-23.29-0.97c0,0-25.23,37.84-71.81,0.97c0,0-180.49,8.98-21.35-20.25
	c0,0-2.91-19.53,25.23-20.5c0,0,0.97-9.7,9.7-7.76c0,0,3.88-45.61,47.55-18.44c0,0,13.58-4.85,23.29,0.97
	c0,0,11.64-32.02,40.76-4.85c0,0,6.79-9.7,16.5-0.97c0,0-9.7-92.18,33.96-95.1s61.13,47.55,61.13,47.55s32.02-1.94,42.7,22.32
	c0,0,13.6-8.73,25.23,0.97c0,0,22.31-24.26,38.81,12.61c0,0,24.26-6.82,30.08,29.1c0,0,5.82-6.78,10.67,6.8
	c0,0,25.95-11.64,45,14.56c0,0,5.46-1.69,9.34,12.74c0,0,21.35-9.58,31.05,0c0,0,30.08-23.41,59.19-4.01c0,0,33.86-4.6,47.01,4.01
	C2236.95,250.91,2307.35,253.69,2295.71,268.25z"/>
<path class="st1" d="M796.87,501.79c0,0-98.01,7.76-107.71,0c0,0-25.29,7.76-37.87,0c0,0-0.94,11.75-35.87,3.45
	c0,0-20.07,8.42-22.65,2.97c0,0-10.34,19.3-34.6-2.29c0,0-22.32,15.28-43.67-4.13c0,0-37.84,43.47-65.98,7.18
	c0,0-30.69,10.29-40.09-11.06c0,0-26.98,7.76-33.71-2.91c0,0-20.32,10.67-23.23,0c0,0-27.17,34.93-70.84,8.73
	c0,0-5.82,11.64-23.29,0.97c0,0-11.64,9.7-23.29-0.97c0,0-25.23,37.84-71.81,0.97c0,0-180.49,8.98-21.35-20.25
	c0,0-2.91-19.53,25.23-20.5c0,0,0.97-9.7,9.7-7.76c0,0,3.88-45.61,47.55-18.44c0,0,13.59-4.85,23.29,0.97
	c0,0,11.64-32.02,40.76-4.85c0,0,6.79-9.7,16.5-0.97c0,0-9.7-92.18,33.96-95.1s61.13,47.55,61.13,47.55s32.02-1.94,42.7,22.32
	c0,0,13.6-8.73,25.23,0.97c0,0,22.31-24.26,38.81,12.61c0,0,24.26-6.82,30.08,29.1c0,0,5.82-6.78,10.67,6.8
	c0,0,25.95-11.64,45,14.56c0,0,5.46-1.69,9.34,12.74c0,0,21.35-9.58,31.05,0c0,0,30.08-23.41,59.19-4.01c0,0,33.86-4.6,47.01,4.01
	C738.11,484.45,808.51,487.24,796.87,501.79z"/>
<path class="st1" d="M658.41,195.11c0,0-57.92,9.34,0,11.21c0,0,17.44,4.98,28.65,0c0,0,4.36,1.87,9.97-0.62
	c0,0,18.69,12.8,33.01-3.88c0,0,4.98,1.72,9.34,0.93c0,0,4.23,14.83,34.5,7.64c0,0,9.72,1.53,13.46-1.58c0,0,16.19,6.04,31.14-5.08
	c0,0,12.46,3.64,24.29,0c0,0,16.19,5.7,29.9,3.21c0,0,22.42,1.68,33.63-3.21c0,0,11.21,5.7,20.55-3.02c0,0,20.55,12.46,32.39,6.85
	c0,0,17.44,0.43,24.29-3.83c0,0,17.44,4.26,27.4,0c0,0,16.19,2.4,21.18,0c0,0,57.92-1.15,2.49-14.85c0,0-14.95-1.87-23.04,0
	c0,0-13.08-11.21-28.65-8.1c0,0-6.85-2.34-17.44-0.55c0,0-6.23-24.37-43.6-4.44c0,0-8.72-8.72-15.57-3.11c0,0-8.1-23.67-37.37-9.97
	c0,0-7.47-4.36-12.46,0c0,0-1.74-13.08-10.83-11.83c0,0-8.47-21.8-17.19-16.82c0,0-1.87-18.06-9.34-13.7c0,0-22.56-42.35-45.22,4.98
	c0,0-15.82-6.85-10.83,29.27c0,0-9.34-2.67-13.7,3.02c0,0-33.63-21.09-46.09,20.64c0,0-13.08-1.87-11.21,8.1
	C692.05,186.39,655.92,178.3,658.41,195.11z"/>
<path class="st1" d="M1237.51,468.01c0,0-57.92,9.34,0,11.21c0,0,17.44,4.98,28.65,0c0,0,4.36,1.87,9.97-0.62
	c0,0,18.69,12.8,33.01-3.88c0,0,4.98,1.72,9.34,0.93c0,0,4.23,14.83,34.5,7.64c0,0,9.72,1.53,13.46-1.58c0,0,16.19,6.04,31.14-5.08
	c0,0,12.46,3.64,24.29,0c0,0,16.19,5.7,29.9,3.21c0,0,22.42,1.68,33.63-3.21c0,0,11.21,5.7,20.55-3.02c0,0,20.55,12.46,32.39,6.85
	c0,0,17.44,0.43,24.29-3.83c0,0,17.44,4.26,27.4,0c0,0,16.19,2.4,21.18,0c0,0,57.92-1.15,2.49-14.85c0,0-14.95-1.87-23.05,0
	c0,0-13.08-11.21-28.65-8.1c0,0-6.85-2.34-17.44-0.55c0,0-6.23-24.37-43.6-4.44c0,0-8.72-8.72-15.57-3.11c0,0-8.1-23.67-37.37-9.97
	c0,0-7.47-4.36-12.46,0c0,0-1.74-13.08-10.83-11.83c0,0-8.47-21.8-17.19-16.82c0,0-1.87-18.06-9.34-13.7c0,0-22.56-42.35-45.22,4.98
	c0,0-36.12-24.3-31.13,11.82c0,0,10.96,14.78,6.6,20.47c0,0-33.63-21.09-46.09,20.64c0,0-13.08-1.87-11.21,8.1
	C1271.14,459.29,1235.02,451.2,1237.51,468.01z"/>
<path class="st0" d="M1.62,2.89"/>
<path class="st0" d="M2561.62,1442.89"/>
<path class="st0" d="M2561.62,2.89"/>
<path class="st0" d="M1.62,1442.89"/>
</svg>
