<!-- Generator: Adobe Illustrator 25.0.0, SVG Export Plug-In  -->
<svg version="1.1" xmlns="http://www.w3.org/2000/svg" xmlns:xlink="http://www.w3.org/1999/xlink" x="0px" y="0px"
	 width="299.46px" height="185.39px" viewBox="0 0 299.46 185.39"
	 style="overflow:visible;enable-background:new 0 0 299.46 185.39;" xml:space="preserve">
<style type="text/css">
	.st0{fill:#36AE7C;stroke:#F9D923;stroke-width:4;stroke-miterlimit:10;}
	.st1{fill:#36AE7C;stroke:#F9D923;stroke-width:2;stroke-miterlimit:10;}
	.st2{fill:#FFFFFF;}
</style>
<defs>
</defs>
<path class="st0" d="M293.6,2h-40.54c3.45,10.6,5.32,21.91,5.32,33.66c0,60.01-48.65,108.66-108.66,108.66S41.07,95.68,41.07,35.66
	c0-11.75,1.87-23.06,5.32-33.66H5.86C3.34,12.81,2,24.08,2,35.66c0,81.59,66.14,147.73,147.73,147.73s147.73-66.14,147.73-147.73
	C297.46,24.08,296.12,12.81,293.6,2z"/>
<g>
	<path class="st1" d="M253.07,2H46.39c-3.45,10.6-5.32,21.91-5.32,33.66c0,60.01,48.65,108.66,108.66,108.66
		S258.39,95.68,258.39,35.66C258.39,23.91,256.52,12.6,253.07,2z M200.95,33.95c-0.39-3.39-4.74-6.87-4.74-6.87
		c-0.19-0.87-5.23-3.48-11.03-4.74s-9,3-9,3s14.9,1.26,19.94,10.16c5.03,8.9,1.74,16.74,1.74,16.74c0.19-2.32-1.35-6.77-3.1-11.13
		s-6.1-7.55-9.77-9.39c-3.68-1.84-7.74-0.19-7.74-0.19s3.87-1.45,9.77,3.68c5.9,5.13,5.32,10.06,5.32,10.06s-1.55-4.06-8.71-7.65
		c-7.16-3.58-12.58,1.84-12.58,1.84c6.68-2.32,10.35-0.48,10.35-0.48c6.29,3.1,5.71,8.23,5.71,8.23
		c-11.32-11.23-17.13-0.39-17.13-0.39s12.68-4.16,18.68,5.52s1.74,19.06,1.74,19.06c0.87-4.74-2.71-16.65-9.58-19.84
		s-10.94,2.42-10.94,2.42c8.32-3.19,11.03,0.97,11.03,0.97c-7.65-0.19-8.52,3-8.52,3c13.26-0.97,12.87,10.35,12.87,10.35
		c-5.03-6.29-10.84-6.48-10.84-6.48c12.48,5.61,10.06,12.97,10.06,12.97c-3.1-6.39-11.03-9.19-11.03-9.19
		c6.97,5.42,5.61,10.94,5.61,10.94c-4.16-7.74-9.87-7.65-9.87-7.65c7.26,6,4.16,12.48,4.16,12.48c-2.81-9.1-6.13-9.77-6.13-9.77
		c2.2,10.74-1.71,16.74-2,16.84c-0.29,0.1,0.29,4.55,0.29,4.55c1.26,2.23-0.19,3.1-0.19,3.1c-1.06,1.55-7.26,3.77-7.26,3.77
		c0.19,2.61-2.32,4.35-2.32,4.35c0.19,2.03-0.97,3.77-0.97,3.77c-2.61,9.1,0.19,11.13,0.19,11.13c3.39-0.87,6,1.35,6,1.35
		c2.61-0.68,5.03,1.74,5.03,1.74c1.65,1.26,1.16,3,1.16,3c-0.58-0.97-1.94-0.77-1.94-0.77c-1.55,1.06-4.16-0.1-4.16-0.1
		c-4.16-2.61-10.35-0.39-10.35-0.39s-4.55,0.58-7.4,4.94c-2.85,4.35-5.47,2.81-5.47,2.81c-1.26,0.19-2.03,1.45-2.03,1.45
		c-0.77-0.48,0.1-1.55,0.1-1.55c-0.19-1.06,0.77-2.81,0.77-2.81c-2.52,0.19-3.37-1.06-3.37-1.06c-0.95-0.29-3.02,1.06-3.02,1.06
		c-0.48-0.58,0.39-1.65,0.39-1.65c-0.48-0.87,4.65-3,2.63-2.52c-0.15,0.04-0.29,0.06-0.42,0.08c-1.67,0.25-2.12-0.66-2.12-0.66
		c-1.26-0.1-2.9,1.26-2.9,1.26c-1.26-1.26,2.81-3.87,2.81-3.87c-0.97,0.39-2.42,0-2.42,0s0.48-1.26,2.52-2.14
		c2.03-0.88,3.87-0.48,3.87-0.48s7.55,2.13,11.24-2.61c3.69-4.74,1.82-12.19,1.82-12.19c-1.74-1.55-1.82-2.23-1.82-2.23
		c-5.02,0.19-6.5-1.65-6.5-1.65c-1.06,0.68-2.52,0-2.52,0c-1.16-1.26,0-2.61,0-2.61l-0.39-4.45c-0.68-0.1-2.03-2.61-2.03-2.61
		c-1.94-0.29-4.84-3.39-4.84-3.39c-2.13-0.39-3.62-3.29-3.62-3.29c-5.45-0.48-4.51-2.13-4.51-2.13c-3.97-0.48-3.39-1.33-3.39-1.33
		c-1.16,0.22-3-0.12-3-0.12c-10.45,1.45-7.45-10.92-7.45-10.92c-0.48-0.56-0.1-0.89-0.1-0.89c-2.13-0.19-4.06-3-4.06-3
		c-2.81-0.77-3.97-2.81-3.97-2.81s-4.94-9.68,4.84-12.39c9.77-2.71,9.58,4.35,9.58,4.35c2.58-0.23,3.81,1.81,4.22,2.69
		c-0.35-1.32,1.1-2.98,1.1-2.98c-0.77-1.16,1.94-4.26,1.94-4.26c-1.94,2.23-4.26,0.58-4.26,0.58c-2.81-3.87-0.29-8.03,0.1-8.23
		c0.39-0.19,0.77-2.61,0.77-2.61s-2.13,0-3.39-0.68c-1.26-0.68-2.81,1.16-2.81,1.16c-1.55-4.94,3.1-7.34,3.1-7.34
		c-0.13-0.46,0.24-1.07,0.48-1.41c-0.5,0.6-1.87,2.04-3.19,1.11c-1.65-1.16-1.35-2.42,0.48-4.06c1.84-1.65,0.68-2.81,0.68-2.81
		c-2.71-2.32-2.52-3.1-2.52-3.48s0.48-0.97,3.1-0.58s2.23-1.45,2.23-2.18s-0.19-0.53-2.81-2.76c-2.61-2.23,0.48-4.06,0.48-4.06
		c3.1-2.9,6.19-0.29,6.19-0.29c0.29-1.55,1.74-1.45,1.74-1.45c6.39,3.1,3.97,13.06,3.97,13.06c1.06-0.97,2.9-0.48,2.9-0.48
		l-0.77,1.06c2.32-0.77,4.55,0.97,4.55,0.97l-1.16,0.77c3.48,0.39,4.94,5.23,4.94,5.23l-0.77,0.19c1.74,1.45,1.65,7.26,1.65,7.26
		s-1.16-0.58-0.87,0s0.1,4.06,0.1,4.06l-1.26-0.39c0.58,0.97-0.77,8.32-0.77,8.32l-0.76-0.68c0,0,0.18,1.26,0,3.77
		c-0.18,2.52,2.31,2.61,2.31,2.61c0-0.77,5.61-1.94,5.61-1.94c-0.29,0-0.39,1.55-0.39,1.55c1.26-0.97,8.88,0.1,8.88,0.1
		c-1.38-0.19-1.13,1.45-1.13,1.45c1.94-0.77,6.39,0.58,6.39,0.58c-0.58-0.19-0.58,1.06-0.58,1.06c3.1,0,6.19,1.84,6.19,1.84
		c1.26-4.55-0.48-6.97-0.48-6.97c-3.19-2.03-5.71-14.81-5.71-14.81c0.39-0.48-0.1-8.13-0.1-8.13c-0.68-14.03,4.35-16.94,4.35-16.94
		c-0.32,0.55-0.73,2.75-1.11,5.15c2.47-9.15,8.46-10.57,8.46-10.57c-2.69,3.22-4.3,7.85-5.2,11.33c2.65-8.5,9.02-11.73,10.99-12.55
		c0.21-0.14,0.42-0.22,0.6-0.23c0,0-0.22,0.07-0.6,0.23c-1.39,0.88-3.42,4.25-5.03,7.26c5.03-7.77,11.43-7.49,11.43-7.49
		c-5.13,1.16-10.55,12.39-10.55,12.39c8.32-10.26,13.35-7.94,13.35-7.94c-5.9,1.45-8.52,7.4-8.52,7.4s3.19-6.15,12.29-5.47
		c9.1,0.68,10.94,6.29,10.94,6.29s-3.1-2.23-6.68-3c-3.58-0.77-7.26,0.97-7.26,0.97c12.77-0.1,15.19,4.16,17.71,7.35
		S200.95,33.95,200.95,33.95z"/>
	<path class="st1" d="M124.01,42.08c0,0,0.6-2.35-0.31-2.58c0,0-1.2-0.26-1.56,0v2.23l1.35,2.84l-0.84,3.81l1.61-2.71l-0.48-1.48
		c0,0,1.65-2.06,1.45-2.26C125.24,41.92,124.11,41.79,124.01,42.08z"/>
</g>
<g>
	<g>
		<path class="st2" d="M54.64,122.9c-2.98-3.17-4.42-4.84-7.19-8.32c-1.84,1.47-2.76,2.2-4.6,3.67c3.39,4.27,5.17,6.29,8.87,10.12
			c-1.04,1.01-1.57,1.52-2.61,2.54c-5.48-5.67-8.08-8.75-12.88-15.36c7.11-5.17,10.67-7.75,17.78-12.92
			c4.05,5.57,6.23,8.16,10.84,12.93c-1.05,1.02-1.58,1.53-2.63,2.56c-3.29-3.41-4.87-5.21-7.89-9.01c-1.64,1.31-2.46,1.96-4.1,3.26
			c2.69,3.39,4.09,5.01,6.99,8.09C56.18,121.44,55.67,121.92,54.64,122.9z"/>
		<path class="st2" d="M58.4,134.83c3.67,3.31,5.57,4.87,9.46,7.79c-0.87,1.17-1.31,1.75-2.18,2.92
			c-5.88-4.41-8.71-6.83-14.07-12.11c6.15-6.29,9.22-9.43,15.37-15.72c1.45,1.43,2.19,2.12,3.68,3.47
			C65.75,126.64,63.3,129.37,58.4,134.83z"/>
		<path class="st2" d="M85.42,149.11c-1.5,2.71-2.25,4.07-3.76,6.78c-2.02-1.12-3.02-1.7-5-2.91c4.58-7.51,6.87-11.27,11.44-18.78
			c3.16,1.93,4.78,2.83,8.06,4.48c1.58,0.8,2.84,1.73,3.82,2.84c0.97,1.11,1.59,2.31,1.83,3.62c0.24,1.31,0.11,2.63-0.44,3.94
			c-0.83,1.99-2.26,3.24-4.36,3.68c-2.09,0.44-4.59-0.01-7.38-1.42C87.94,150.49,87.1,150.04,85.42,149.11z M87.2,145.9
			c1.66,0.92,2.49,1.36,4.18,2.21c1.25,0.63,2.33,0.84,3.23,0.64c0.9-0.2,1.57-0.78,2.01-1.73c0.46-0.98,0.5-1.92,0.15-2.82
			c-0.35-0.9-1.07-1.63-2.16-2.2c-1.64-0.83-2.45-1.26-4.06-2.15C89.21,142.28,88.54,143.49,87.2,145.9z"/>
		<path class="st2" d="M117.52,159.87c-3.93-0.99-5.89-1.56-9.75-2.86c-0.76,2.23-1.13,3.35-1.89,5.58
			c4.73,1.59,7.14,2.28,11.97,3.42c-0.34,1.42-0.51,2.12-0.85,3.54c-7.17-1.7-10.72-2.79-17.65-5.44
			c3.16-8.21,4.73-12.31,7.89-20.52c5.84,2.23,8.82,3.15,14.86,4.58c-0.34,1.43-0.51,2.14-0.86,3.57
			c-4.31-1.02-6.44-1.63-10.66-3.05c-0.67,1.99-1.01,2.98-1.68,4.96c3.76,1.26,5.66,1.82,9.48,2.78
			C118.04,157.81,117.87,158.5,117.52,159.87z"/>
		<path class="st2" d="M131.37,164.07c-1.68-0.23-2.52-0.36-4.19-0.65c-0.55,3.17-0.82,4.76-1.37,7.93
			c-2.23-0.38-3.34-0.59-5.55-1.06c1.85-8.6,2.77-12.89,4.62-21.49c3.37,0.72,5.06,1.01,8.47,1.48c2.71,0.37,4.73,1.15,6.13,2.43
			c1.4,1.28,2.06,2.95,1.92,5.06c-0.1,1.5-0.55,2.72-1.36,3.66c-0.81,0.94-2.02,1.65-3.6,2.08c1.84,3.8,2.84,5.68,4.98,9.4
			c-0.01,0.08-0.01,0.13-0.01,0.21c-2.42-0.14-3.63-0.24-6.04-0.48C133.64,169.24,132.84,167.52,131.37,164.07z M127.8,159.8
			c1.65,0.28,2.47,0.41,4.13,0.64c1.29,0.18,2.32,0.01,3.09-0.48s1.2-1.25,1.31-2.26c0.11-1.03-0.13-1.87-0.7-2.54
			c-0.57-0.66-1.5-1.07-2.81-1.25c-1.56-0.22-2.34-0.34-3.9-0.6C128.47,155.9,128.25,157.2,127.8,159.8z"/>
		<path class="st2" d="M160.32,163.43c-4.03,0.32-6.05,0.41-10.08,0.42c0.01,2.35,0.01,3.53,0.02,5.89
			c4.95-0.02,7.43-0.14,12.36-0.6c0.14,1.45,0.21,2.17,0.34,3.62c-7.31,0.68-10.99,0.79-18.33,0.53c0.32-8.78,0.48-13.18,0.8-21.96
			c6.17,0.22,9.27,0.13,15.43-0.44c0.14,1.46,0.21,2.19,0.34,3.65c-4.39,0.41-6.6,0.52-11,0.53c0.01,2.09,0.01,3.14,0.02,5.24
			c3.93-0.02,5.89-0.1,9.81-0.41C160.15,161.31,160.21,162.01,160.32,163.43z"/>
		<path class="st2" d="M186.81,165.56c-0.7,1.21-1.89,2.31-3.56,3.28c-1.67,0.96-3.64,1.68-5.86,2.12c-2.33,0.46-4.47,0.4-6.36-0.15
			c-1.88-0.55-3.39-1.57-4.52-3.03s-1.8-3.25-2.07-5.36c-0.07-0.59-0.1-0.89-0.17-1.48c-0.25-2.18-0.05-4.11,0.56-5.8
			c0.61-1.69,1.58-3.05,2.91-4.11c1.33-1.06,2.95-1.76,4.88-2.14c2.69-0.53,4.9-0.42,6.73,0.4c1.83,0.82,3.23,2.31,4.16,4.51
			c-1.9,0.53-2.86,0.77-4.77,1.22c-0.51-1.17-1.2-1.96-2.06-2.36c-0.86-0.41-1.93-0.47-3.21-0.22c-1.64,0.32-2.78,1.1-3.46,2.39
			c-0.68,1.29-0.87,3.05-0.53,5.31c0.09,0.55,0.13,0.83,0.22,1.39c0.35,2.28,1.13,3.92,2.36,4.91c1.23,0.99,2.88,1.3,4.91,0.9
			c2.03-0.41,3.4-1.1,4.09-2c-0.35-1.47-0.52-2.21-0.87-3.69c-1.89,0.44-2.84,0.65-4.74,1.02c-0.26-1.31-0.39-1.96-0.65-3.27
			c3.89-0.76,5.83-1.22,9.66-2.28C185.39,160.5,185.86,162.19,186.81,165.56z"/>
		<path class="st2" d="M198.64,156.05c-1.59,0.63-2.4,0.93-4.01,1.51c1.09,3.03,1.64,4.54,2.73,7.57c-2.14,0.77-3.22,1.13-5.39,1.81
			c-2.65-8.39-3.97-12.58-6.62-20.97c3.3-1.03,4.93-1.61,8.16-2.89c2.57-1.02,4.74-1.35,6.61-0.94c1.87,0.41,3.29,1.53,4.22,3.44
			c0.66,1.35,0.87,2.64,0.62,3.87c-0.25,1.23-0.96,2.44-2.15,3.61c3.51,2.38,5.33,3.52,9.08,5.68c0.04,0.08,0.06,0.11,0.09,0.19
			c-2.21,1.09-3.33,1.61-5.58,2.6C203.2,159.42,201.65,158.32,198.64,156.05z M193.38,154.11c1.59-0.57,2.38-0.87,3.95-1.49
			c1.22-0.48,2.05-1.14,2.49-1.96c0.43-0.81,0.44-1.69,0.03-2.62c-0.41-0.95-1.04-1.56-1.88-1.86c-0.83-0.29-1.86-0.18-3.1,0.31
			c-1.48,0.59-2.23,0.87-3.73,1.4C192.04,150.38,192.49,151.62,193.38,154.11z"/>
		<path class="st2" d="M220.32,154.45c-2,1.16-3.01,1.72-5.05,2.8c-4.11-7.78-6.16-11.67-10.27-19.45c1.72-0.91,2.57-1.38,4.26-2.36
			C213.69,143.05,215.9,146.85,220.32,154.45z"/>
		<path class="st2" d="M243.4,137.62c-1.78,1.6-2.68,2.38-4.5,3.89c-7.23-1.53-10.72-2.54-17.37-4.96c3.3,4.76,4.95,7.13,8.25,11.89
			c-1.92,1.34-2.89,1.98-4.86,3.23c-4.71-7.43-7.07-11.14-11.78-18.57c1.66-1.05,2.48-1.6,4.09-2.72c6.46,2.57,9.86,3.65,16.92,5.34
			c-3.68-4.48-5.53-6.72-9.21-11.2c1.54-1.27,2.29-1.92,3.79-3.27C234.6,127.8,237.53,131.07,243.4,137.62z"/>
		<path class="st2" d="M254.75,109.38c1.75,1.27,3,2.79,3.69,4.58c0.7,1.79,0.8,3.74,0.29,5.81c-0.51,2.07-1.6,4.09-3.24,5.97
			c-1.63,1.87-3.44,3.18-5.39,3.95c-1.95,0.77-3.86,0.9-5.71,0.45c-1.85-0.46-3.5-1.47-4.97-2.99c-0.3-0.31-0.45-0.47-0.75-0.79
			c-1.49-1.57-2.47-3.27-2.96-5.09s-0.49-3.6-0.01-5.38s1.41-3.43,2.78-5c1.37-1.57,2.89-2.73,4.61-3.48s3.51-1.03,5.4-0.81
			c1.88,0.22,3.71,0.94,5.45,2.2C254.27,109.03,254.43,109.15,254.75,109.38z M250.43,113.42c-1.8-1.44-3.49-2.12-5.04-2.11
			c-1.55,0.01-2.9,0.7-4.08,2.05c-1.17,1.35-1.66,2.75-1.46,4.27c0.2,1.52,1.09,3.09,2.73,4.68c0.31,0.3,0.46,0.45,0.77,0.74
			c1.62,1.56,3.23,2.39,4.86,2.46c1.63,0.07,3.15-0.67,4.49-2.21c1.32-1.51,1.86-3.1,1.61-4.69c-0.25-1.59-1.28-3.09-3.05-4.52
			C250.93,113.82,250.76,113.68,250.43,113.42z"/>
	</g>
</g>
</svg>
